<svg xmlns="http://www.w3.org/2000/svg" width="720" height="600" viewBox="0 0 720 600" font-family="Inter, -apple-system, BlinkMacSystemFont, sans-serif">
  <rect width="720" height="600" rx="16" fill="#ffffff" stroke="#e5e7eb" stroke-width="1"/>

  <!-- Top label -->
  <text x="28" y="36" font-size="13" font-weight="600" fill="#1a1a1a">Special offer</text>

  <!-- Gift icon -->
  <text x="360" y="68" font-size="30" text-anchor="middle">🎁</text>

  <!-- Heading (two lines, larger/bolder) -->
  <text x="360" y="100" font-size="22" font-weight="800" fill="#111827" text-anchor="middle">Unlock Super 14 Days Free</text>
  <text x="360" y="126" font-size="22" font-weight="800" fill="#111827" text-anchor="middle">Then Enjoy Your First Month for Just $1!</text>

  <!-- Subtitle -->
  <text x="360" y="148" font-size="13" fill="#6b7280" text-anchor="middle">Try today with zero risk. Cancel anytime with ease.</text>

  <!-- Divider -->
  <line x1="28" y1="164" x2="692" y2="164" stroke="#e5e7eb" stroke-width="1"/>

  <!-- LEFT CARD -->
  <rect x="28" y="176" width="326" height="338" rx="12" fill="#f9fafb" stroke="#e5e7eb" stroke-width="1.5"/>
  <text x="48" y="208" font-size="15" font-weight="700" fill="#111827">Free Plan</text>
  <rect x="48" y="218" width="286" height="50" rx="8" fill="#f3f4f6"/>
  <text x="64" y="251" font-size="13" fill="#374151">$</text>
  <text x="75" y="255" font-size="30" font-weight="800" fill="#111827">0</text>
  <text x="115" y="251" font-size="13" fill="#6b7280">/Month</text>

  <text x="48" y="292" font-size="13" font-weight="700" fill="#111827">Some basic features:</text>
  <circle cx="58" cy="314" r="4" fill="#f97316"/><text x="70" y="318" font-size="13" fill="#374151">Total reviews/product: <tspan font-weight="700">5</tspan></text>
  <circle cx="58" cy="340" r="4" fill="#f97316"/><text x="70" y="344" font-size="13" fill="#374151">Basic features</text>
  <circle cx="58" cy="366" r="4" fill="#f97316"/><text x="70" y="370" font-size="13" fill="#374151">Basic support</text>
  <circle cx="58" cy="392" r="4" fill="#f97316"/><text x="70" y="396" font-size="13" fill="#374151">Show only text reviews</text>
  <circle cx="58" cy="418" r="4" fill="#f97316"/><text x="70" y="422" font-size="13" fill="#374151">Import reviews from AliExpress</text>

  <!-- RIGHT CARD -->
  <rect x="366" y="176" width="326" height="338" rx="12" fill="#f9fafb" stroke="#e5e7eb" stroke-width="1.5"/>
  <text x="386" y="208" font-size="15" font-weight="700" fill="#111827">Super Plan</text>
  <rect x="480" y="192" width="88" height="22" rx="11" fill="#dbeafe"/>
  <text x="524" y="207" font-size="11" font-weight="600" fill="#1d4ed8" text-anchor="middle">Limited offer!</text>

  <rect x="386" y="218" width="286" height="50" rx="8" fill="#f3f4f6"/>
  <text x="402" y="251" font-size="13" fill="#374151">$</text>
  <text x="413" y="255" font-size="30" font-weight="800" fill="#111827">1</text>
  <text x="453" y="242" font-size="12" fill="#9ca3af" text-decoration="line-through">$14.95</text>
  <text x="453" y="258" font-size="12" fill="#6b7280">for the first month</text>

  <text x="386" y="298" font-size="13" font-weight="700" fill="#111827">Key advanced features:</text>
  <circle cx="396" cy="318" r="4" fill="#22c55e"/><text x="408" y="322" font-size="13" fill="#374151">Total reviews/product: <tspan font-weight="700">Unlimited</tspan></text>
  <circle cx="396" cy="344" r="4" fill="#22c55e"/><text x="408" y="348" font-size="13" fill="#374151">Access all exclusive features</text>
  <circle cx="396" cy="370" r="4" fill="#22c55e"/><text x="408" y="374" font-size="13" fill="#374151">Priority support</text>
  <circle cx="396" cy="396" r="4" fill="#22c55e"/><text x="408" y="400" font-size="13" fill="#374151">Show photo and video reviews</text>
  <circle cx="396" cy="422" r="4" fill="#22c55e"/><text x="408" y="426" font-size="13" fill="#374151">Import reviews from AliExpress, Amazon...</text>
  <circle cx="396" cy="448" r="4" fill="#22c55e"/><text x="408" y="452" font-size="13" fill="#374151">Import reviews from a CSV file</text>

  <!-- Divider -->
  <line x1="28" y1="530" x2="692" y2="530" stroke="#e5e7eb" stroke-width="1"/>

  <!-- CTAs -->
  <rect x="450" y="546" width="118" height="38" rx="8" fill="#ffffff" stroke="#d1d5db" stroke-width="1.5"/>
  <text x="509" y="570" font-size="13" font-weight="500" fill="#374151" text-anchor="middle">Maybe later</text>

  <rect x="580" y="546" width="112" height="38" rx="8" fill="#111827"/>
  <text x="636" y="570" font-size="13" font-weight="600" fill="#ffffff" text-anchor="middle">Grab the deal</text>
</svg>
